<svg xmlns="http://www.w3.org/2000/svg" viewBox="0 0 210.01 233.05"><defs><style>.cls-1{fill:none;stroke:#212683;stroke-miterlimit:10;stroke-width:6px;}.cls-2{fill:#1f268e;}.cls-3{fill:#212683;}</style></defs><title>Healthcare</title><g id="Layer_2" data-name="Layer 2"><g id="Layer_1-2" data-name="Layer 1"><path class="cls-1" d="M200.48,190.76,147.93,222a31,31,0,0,1-10,3.79l-19.34,3.69a31.45,31.45,0,0,1-13.87-.49L58.12,216.68a44.62,44.62,0,0,0-22.43-.11l-23.12,5.9a7.44,7.44,0,0,1-9.4-6.94L3,189.23a7.21,7.21,0,0,1,4.67-6.74l48.08-18.84A31,31,0,0,1,66,161.53l32.22-1.18,23.53-.87h.36a10.65,10.65,0,1,1,.14,21.28L78.41,181A3.39,3.39,0,0,0,75,184.37v.19a3.38,3.38,0,0,0,3,3.13l20.41,2.57,29.33,3.69a14.56,14.56,0,0,0,8.22-1.36L184.37,169l2.68-1.3a14.2,14.2,0,0,1,6.11-1.43,13.93,13.93,0,0,1,10.94,5.11A13,13,0,0,1,200.48,190.76Z"/><path class="cls-1" d="M185.1,169.76c-.24-.28-.48-.55-.73-.81a24.16,24.16,0,0,0-27.66-5.21L135,173.82l-2.25,1"/><path class="cls-1" d="M138.39,58H120.15a1.21,1.21,0,0,1-1.21-1.21V38.55a1.21,1.21,0,0,0-1.21-1.21H94.14a1.21,1.21,0,0,0-1.21,1.21V56.78A1.21,1.21,0,0,1,91.71,58H73.48a1.21,1.21,0,0,0-1.21,1.21V82.8A1.21,1.21,0,0,0,73.48,84H91.71a1.21,1.21,0,0,1,1.21,1.21v18.23a1.21,1.21,0,0,0,1.21,1.21h23.59a1.21,1.21,0,0,0,1.21-1.21V85.22A1.21,1.21,0,0,1,120.15,84h18.23a1.21,1.21,0,0,0,1.21-1.21V59.2A1.21,1.21,0,0,0,138.39,58Z"/><path class="cls-1" d="M171.83,87.85a68,68,0,1,1,0-33.7"/><path class="cls-2" d="M31.24,126.23l-2.1,0,0-2.1A2.59,2.59,0,0,0,24,124l0,2.1-2.1,0a2.59,2.59,0,1,0-.1,5.17l2.1,0,0,2.1a2.59,2.59,0,0,0,5.17.1l0-2.1,2.1,0a2.59,2.59,0,0,0,.1-5.17Z"/><path class="cls-2" d="M194.3,126.23l-2.1,0,0-2.1a2.59,2.59,0,0,0-5.17-.1l0,2.1-2.1,0a2.59,2.59,0,1,0-.1,5.17l2.1,0,0,2.1a2.59,2.59,0,0,0,5.17.1l0-2.1,2.1,0a2.59,2.59,0,0,0,.1-5.17Z"/><path class="cls-2" d="M197.25,27.78l-2.13,0,0-2.13a2.62,2.62,0,0,0-5.24-.1l0,2.13-2.13,0a2.62,2.62,0,1,0-.1,5.24l2.13,0,0,2.13a2.62,2.62,0,0,0,5.24.1L195,33l2.13,0a2.62,2.62,0,0,0,.1-5.24Z"/><circle class="cls-3" cx="171.83" cy="71" r="3.29"/><path class="cls-1" d="M85.26,26.61H82.7A18.19,18.19,0,0,0,64.51,44.81h0"/><line class="cls-1" x1="103.43" y1="37.33" x2="103.43" y2="71"/><line class="cls-1" x1="103.43" y1="75.5" x2="103.43" y2="80.25"/><line class="cls-1" x1="28.55" y1="174.31" x2="28.55" y2="218.39"/><line class="cls-1" x1="47.05" y1="167.06" x2="47.05" y2="189.75"/><line class="cls-1" x1="47.05" y1="193.25" x2="47.05" y2="199"/></g></g></svg>