<?xml version="1.0" encoding="UTF-8"?>
<!DOCTYPE svg PUBLIC "-//W3C//DTD SVG 1.1//EN" "http://www.w3.org/Graphics/SVG/1.1/DTD/svg11.dtd">
<!-- Creator: CorelDRAW -->
<svg xmlns="http://www.w3.org/2000/svg" xml:space="preserve" width="2048px" height="2048px" style="shape-rendering:geometricPrecision; text-rendering:geometricPrecision; image-rendering:optimizeQuality; fill-rule:evenodd; clip-rule:evenodd"
viewBox="0 0 2048 2048"
 xmlns:xlink="http://www.w3.org/1999/xlink">
 <defs>
  <style type="text/css">
   <![CDATA[
    .fil4 {fill:none}
    .fil1 {fill:#00ACC1}
    .fil2 {fill:#4DD0E1}
    .fil3 {fill:#00838F;fill-rule:nonzero}
    .fil0 {fill:#00ACC1;fill-rule:nonzero}
   ]]>
  </style>
 </defs>
 <g id="Layer_x0020_1">
  <metadata id="CorelCorpID_0Corel-Layer"/>
  <g id="_366657056">
   <g>
    <polygon id="_366659120" class="fil0" points="1198.53,316.852 1268.36,316.852 1268.36,386.672 1198.53,386.672 "/>
    <polygon id="_366659480" class="fil0" points="779.636,316.852 849.603,316.852 849.603,386.672 779.636,386.672 "/>
   </g>
   <rect id="_366659000" class="fil1" x="938.636" y="500.362" width="170.727" height="139.637"/>
   <rect id="_366658952" class="fil1" x="794.065" y="1233.45" width="124.438" height="453.797"/>
   <rect id="_366658448" class="fil1" x="1129.49" y="1233.45" width="124.438" height="453.797"/>
   <polygon id="_366658376" class="fil0" points="744.676,733.047 570.339,733.047 570.339,802.867 744.676,802.867 "/>
   <polygon id="_366658304" class="fil0" points="1303.32,733.047 1477.66,733.047 1477.66,802.867 1303.32,802.867 "/>
   <path id="_366658904" class="fil2" d="M849.454 605.091l349.09 0c76.8001,0 139.636,62.8371 139.636,139.636l0 523.636 -628.362 0 0 -523.636c0,-76.7989 62.8359,-139.636 139.636,-139.636z"/>
   <polygon id="_366658808" class="fil2" points="841.864,535.272 1206.13,535.272 1206.13,255.999 841.864,255.999 "/>
   <rect id="_366658496" class="fil2" x="737.745" y="1652.36" width="237.081" height="139.636"/>
   <rect id="_366658280" class="fil2" x="1073.17" y="1652.36" width="237.081" height="139.636"/>
   <rect id="_366657752" class="fil2" x="1408.08" y="709.818" width="139.636" height="418.909"/>
   <path id="_366658064" class="fil0" d="M1397.02 1224.67c0,-26.426 9.0945,-50.4343 23.7414,-67.8201 14.6469,-17.3858 34.8744,-28.1788 57.1394,-28.1788l0.0011811 0c22.2662,0 42.4914,10.7929 57.1394,28.1788 14.6469,17.3858 23.7402,41.3941 23.7402,67.8201l-44.1166 0c0,-11.9717 -4.14331,-22.8768 -10.8165,-30.7973 -6.67323,-7.92048 -15.8599,-12.8386 -25.9465,-12.8386l-0.0011811 0c-10.0854,0 -19.2744,4.91811 -25.9465,12.8386 -6.67323,7.92048 -10.8165,18.8256 -10.8165,30.7973l-44.1178 0z"/>
   <rect id="_366657632" class="fil2" x="500.281" y="709.818" width="139.636" height="418.909"/>
   <path id="_366657992" class="fil0" d="M650.98 1224.67c0,-26.426 -9.0945,-50.4343 -23.7414,-67.8201 -14.6469,-17.3858 -34.8744,-28.1788 -57.1394,-28.1788l-0.0011811 0c-22.2662,0 -42.4914,10.7929 -57.1394,28.1788 -14.6469,17.3858 -23.7402,41.3941 -23.7402,67.8201l44.1166 0c0,-11.9717 4.14331,-22.8768 10.8165,-30.7973 6.67323,-7.92048 15.8599,-12.8386 25.9465,-12.8386l0.0011811 0c10.0854,0 19.2744,4.91811 25.9465,12.8386 6.67323,7.92048 10.8165,18.8256 10.8165,30.7973l44.1178 0z"/>
   <path id="_366657536" class="fil1" d="M945.22 385.605c18.6898,0 33.8422,-15.1524 33.8422,-33.8433 0,-18.691 -15.1524,-33.8433 -33.8422,-33.8433 -18.691,0 -33.8433,15.1524 -33.8433,33.8433 0,18.691 15.1524,33.8433 33.8433,33.8433z"/>
   <path id="_366658040" class="fil1" d="M1102.78 385.605c18.691,0 33.8433,-15.1524 33.8433,-33.8433 0,-18.691 -15.1524,-33.8433 -33.8433,-33.8433 -18.6898,0 -33.8422,15.1524 -33.8422,33.8433 0,18.691 15.1524,33.8433 33.8422,33.8433z"/>
   <rect id="_366657440" class="fil1" x="848" y="799.999" width="352.001" height="256.001"/>
   <g>
    <polygon id="_366657680" class="fil3" points="894.311,838.237 1153.69,838.237 1153.69,858.238 894.311,858.238 "/>
    <polygon id="_366657176" class="fil3" points="894.311,918 1153.69,918 1153.69,938 894.311,938 "/>
    <polygon id="_366656936" class="fil3" points="894.311,997.762 1153.69,997.762 1153.69,1017.76 894.311,1017.76 "/>
   </g>
  </g>
 </g>
 <rect class="fil4" width="2048" height="2048"/>
</svg>
